<?xml version="1.0" standalone="no"?>
<!DOCTYPE svg PUBLIC "-//W3C//DTD SVG 20010904//EN"
 "http://www.w3.org/TR/2001/REC-SVG-20010904/DTD/svg10.dtd">
<svg version="1.0" xmlns="http://www.w3.org/2000/svg"
 width="963.000000pt" height="263.000000pt" viewBox="0 0 963.000000 263.000000"
 preserveAspectRatio="xMidYMid meet">

<g transform="translate(0.000000,263.000000) scale(0.100000,-0.100000)"
fill="#000000" stroke="none">
<path d="M665 2606 c-9 -13 -119 -281 -245 -595 -125 -315 -236 -583 -244
-596 -24 -36 -61 -57 -118 -66 -53 -9 -66 -15 -55 -26 4 -3 100 -6 214 -5 244
1 223 0 223 11 0 5 -22 11 -50 15 -57 8 -75 29 -65 79 7 34 99 288 116 319 9
16 26 18 197 18 103 0 192 -4 198 -8 7 -4 44 -92 84 -197 l71 -189 -23 -17
c-12 -10 -20 -20 -17 -23 8 -9 426 -12 435 -3 12 12 0 17 -56 26 -69 11 -98
35 -142 117 -20 38 -132 305 -248 594 -116 289 -218 535 -226 548 -18 28 -30
28 -49 -2z m65 -541 c40 -110 75 -206 77 -212 4 -10 -32 -13 -161 -13 -91 0
-166 2 -166 5 0 4 131 356 155 418 4 10 11 15 15 10 4 -4 40 -98 80 -208z"/>
<path d="M6956 2608 c-9 -12 -120 -282 -247 -600 -181 -453 -238 -587 -263
-613 -31 -33 -43 -38 -118 -50 -36 -6 -53 -24 -25 -26 12 -1 405 0 420 1 4 0
7 4 7 9 0 5 -22 11 -50 15 -57 8 -75 29 -65 79 7 34 99 288 116 319 9 16 26
18 197 18 103 0 192 -4 199 -8 6 -4 43 -92 82 -197 l72 -189 -23 -18 c-13 -9
-20 -19 -17 -22 8 -9 426 -12 435 -3 12 11 0 17 -54 26 -117 18 -106 -2 -416
771 -103 256 -194 475 -202 488 -18 28 -29 28 -48 0z m62 -538 c39 -107 73
-203 77 -212 7 -17 -5 -18 -159 -18 -91 0 -166 2 -166 5 0 4 131 356 155 418
4 10 11 15 15 10 4 -4 39 -96 78 -203z"/>
<path d="M2951 2606 c-10 -13 -41 -170 -41 -208 0 -44 18 -41 38 6 32 72 49
78 245 88 95 4 177 6 184 3 10 -3 13 -89 12 -392 0 -213 -4 -458 -8 -544 -8
-189 -15 -203 -90 -213 -28 -4 -51 -11 -51 -16 0 -12 -29 -11 273 -12 141 -1
260 2 264 6 11 11 -2 16 -66 24 -71 10 -89 24 -101 78 -5 21 -10 272 -10 558
l0 518 133 -6 c213 -11 264 -30 276 -102 4 -25 12 -39 21 -39 12 0 16 22 18
120 l3 120 -493 -3 c-396 -2 -503 0 -545 11 -38 10 -55 11 -62 3z"/>
<path d="M5710 2609 c-201 -35 -324 -194 -291 -374 23 -125 88 -212 266 -355
67 -54 134 -113 149 -130 111 -132 95 -283 -38 -353 -31 -16 -58 -22 -116 -22
-138 0 -217 64 -249 205 -28 126 -49 78 -50 -117 l-1 -112 31 -16 c75 -39 248
-56 359 -35 213 40 342 216 309 421 -21 130 -88 218 -284 374 -159 126 -201
174 -211 241 -14 93 41 170 139 195 126 31 264 -46 283 -160 10 -63 14 -69 30
-46 11 15 14 47 12 140 l-3 120 -55 12 c-79 17 -216 23 -280 12z"/>
<path d="M7956 2578 c-3 -24 -8 -281 -11 -573 -4 -291 -11 -552 -16 -580 -11
-60 -23 -70 -90 -78 -53 -7 -67 -12 -56 -23 9 -9 446 -11 460 -2 18 11 5 17
-49 24 -68 9 -89 25 -103 79 -11 44 -36 740 -29 800 3 25 16 14 155 -136 230
-248 789 -802 805 -797 22 8 25 70 32 603 4 281 9 534 13 563 7 70 28 94 87
101 26 3 47 11 46 16 0 6 -80 10 -220 10 -138 0 -221 -4 -222 -10 -2 -5 22
-13 52 -16 70 -7 84 -14 100 -47 14 -29 28 -343 29 -686 l1 -189 -177 184
c-97 101 -267 276 -378 389 -110 113 -245 251 -299 308 -54 56 -105 102 -112
102 -8 0 -15 -17 -18 -42z"/>
<path d="M1592 2578 c3 -7 30 -16 61 -19 67 -7 83 -19 97 -68 12 -45 13 -937
1 -1034 -11 -84 -27 -103 -93 -111 -36 -5 -48 -10 -40 -18 13 -13 491 -16 512
-3 19 12 -12 23 -66 24 -91 2 -102 37 -103 319 l-1 172 88 0 c105 0 85 17 238
-199 125 -177 209 -268 276 -300 42 -20 64 -23 199 -24 110 -2 153 1 156 10 3
7 -11 14 -34 18 -90 15 -126 36 -219 129 -49 50 -151 167 -226 261 l-136 170
77 80 c96 100 132 171 139 270 10 166 -72 275 -243 320 -79 20 -689 23 -683 3z
m573 -87 c23 -10 60 -40 83 -66 57 -65 76 -130 70 -249 -5 -106 -35 -177 -92
-221 -43 -33 -125 -43 -209 -25 l-57 11 0 278 c0 153 3 281 7 284 15 15 158 6
198 -12z"/>
<path d="M4402 2578 c3 -7 26 -15 52 -18 29 -4 55 -14 69 -28 l22 -23 0 -532
c0 -293 -4 -549 -8 -570 -9 -41 -24 -51 -90 -62 -21 -3 -37 -11 -35 -17 4 -11
523 -16 535 -5 12 12 -3 17 -71 25 -79 10 -96 24 -107 89 -12 72 -11 1021 1
1064 11 39 37 55 94 61 16 2 31 9 34 16 3 9 -51 12 -248 12 -197 0 -251 -3
-248 -12z"/>
<path d="M9295 2580 c3 -5 17 -10 30 -10 23 0 24 -3 27 -75 2 -42 7 -75 13
-75 6 0 11 33 13 75 3 72 4 75 27 75 13 0 27 5 30 10 4 6 -22 10 -70 10 -48 0
-74 -4 -70 -10z"/>
<path d="M9460 2500 c0 -108 18 -122 22 -17 l3 72 25 -69 c14 -37 30 -69 35
-70 6 0 21 31 35 69 l25 70 3 -72 c4 -105 22 -90 22 18 0 78 -2 90 -16 87 -9
-2 -26 -30 -40 -67 -14 -36 -26 -67 -28 -69 -3 -2 -15 28 -27 67 -17 53 -27
71 -41 71 -16 0 -18 -10 -18 -90z"/>
<path d="M3312 914 l-99 -199 -97 193 c-53 105 -101 192 -106 192 -15 0 -16
-5 -54 -248 -19 -122 -38 -227 -41 -233 -4 -6 -17 -14 -29 -19 -14 -6 6 -9 64
-9 71 1 80 2 56 11 -28 10 -29 11 -22 72 13 125 29 237 33 232 2 -2 39 -73 81
-157 43 -84 83 -154 89 -156 7 -3 47 65 97 164 47 92 85 166 86 163 0 -3 9
-71 20 -152 11 -81 17 -154 14 -163 -5 -13 7 -15 87 -14 81 1 89 2 57 11 -20
5 -39 17 -43 26 -3 9 -22 118 -41 242 -19 124 -39 229 -44 234 -5 5 -51 -76
-108 -190z"/>
<path d="M2125 1091 c-44 -11 -107 -46 -131 -73 -70 -76 -89 -200 -45 -291 97
-199 423 -195 517 7 51 109 20 251 -65 311 -71 48 -186 68 -276 46z m179 -64
c50 -38 78 -98 84 -177 6 -88 -11 -146 -58 -192 -35 -35 -42 -38 -95 -38 -134
0 -212 96 -208 257 2 74 30 135 76 164 49 31 151 23 201 -14z"/>
<path d="M4115 1090 c-100 -3 -157 -8 -139 -12 41 -9 44 -21 44 -208 0 -217
-6 -257 -39 -269 -18 -7 24 -10 146 -10 l172 -1 7 45 c7 52 -1 70 -15 32 -13
-35 -24 -39 -92 -39 -84 0 -89 6 -89 118 l0 94 49 0 c68 0 101 -14 101 -42 0
-19 2 -20 10 -8 5 8 10 33 10 55 l0 40 -85 -4 -85 -3 0 86 0 86 61 0 c71 0 99
-12 99 -43 1 -20 2 -20 11 -4 6 9 9 34 7 55 l-3 37 -170 -5z"/>
<path d="M5017 1083 c-12 -39 -18 -83 -13 -83 3 0 16 11 30 25 22 22 34 25 96
25 l70 0 0 -174 c0 -228 -5 -262 -39 -275 -19 -7 4 -9 89 -9 81 0 106 2 86 8
-16 5 -33 15 -37 22 -5 7 -9 106 -9 221 l0 207 54 0 c68 0 104 -13 116 -42 7
-18 9 -12 9 30 l1 52 -209 0 c-115 0 -216 3 -224 6 -9 3 -17 -2 -20 -13z"/>
<path d="M6045 1091 c-92 -23 -165 -90 -190 -175 -19 -63 -19 -90 1 -157 35
-117 151 -187 293 -177 152 11 248 105 259 251 6 87 -14 142 -73 196 -66 61
-187 87 -290 62z m178 -63 c57 -44 82 -107 82 -208 -1 -92 -13 -126 -60 -170
-23 -22 -36 -25 -100 -25 -67 0 -76 3 -112 31 -60 49 -87 111 -87 203 0 92 22
144 74 179 30 20 45 23 101 20 53 -3 73 -9 102 -30z"/>
<path d="M960 1077 l35 -12 3 -213 c1 -130 -2 -220 -8 -232 -5 -10 -20 -21
-32 -23 -13 -2 31 -4 97 -5 78 0 109 3 87 8 -18 4 -36 10 -39 13 -3 3 -8 53
-10 111 l-6 106 137 0 136 0 0 -104 c0 -107 -4 -119 -45 -129 -11 -2 34 -5
100 -4 66 0 108 2 93 4 -48 8 -52 23 -56 209 -5 221 0 259 36 273 21 7 -1 9
-88 10 -102 0 -111 -1 -80 -12 l35 -12 3 -98 3 -98 -133 3 -133 3 -3 65 c-5
95 3 127 36 138 21 8 0 10 -88 11 -102 0 -111 -1 -80 -12z"/>
<path d="M6820 1077 l35 -12 5 -175 c6 -200 16 -234 82 -277 51 -34 158 -43
223 -19 53 21 100 71 114 123 6 21 11 103 11 183 0 80 4 150 8 157 4 7 19 16
32 22 19 7 1 10 -75 9 -78 0 -93 -2 -68 -9 42 -12 46 -37 41 -221 -4 -159 -16
-196 -68 -223 -16 -8 -50 -15 -75 -15 -38 0 -52 6 -83 34 l-37 34 -3 190 -3
190 28 10 c22 8 3 10 -87 11 -102 0 -111 -1 -80 -12z"/>
<path d="M7756 1078 c24 -8 33 -18 38 -40 8 -40 8 -289 0 -366 -6 -54 -10 -62
-33 -71 -19 -7 4 -9 89 -9 114 0 120 1 68 12 -25 6 -26 9 -33 92 -5 53 -4 89
2 95 6 6 26 7 44 4 28 -6 44 -21 91 -86 74 -102 102 -119 193 -118 l70 0 -39
15 c-50 18 -54 22 -144 127 l-75 88 36 37 c19 20 40 47 46 59 18 35 13 88 -11
118 -36 47 -73 55 -230 54 -112 -1 -136 -3 -112 -11z m219 -33 c33 -16 53 -45
56 -80 4 -58 -3 -87 -26 -111 -21 -21 -33 -25 -73 -22 l-47 3 -3 104 c-3 109
1 121 41 121 11 0 34 -7 52 -15z"/>
<path d="M125 346 c-43 -18 -93 -79 -101 -121 -26 -138 63 -236 199 -222 28 3
64 11 80 18 26 12 27 16 27 82 0 55 4 73 18 83 15 12 8 13 -47 14 l-65 0 22
-20 c18 -17 22 -32 22 -80 0 -71 -17 -85 -87 -77 -57 6 -89 37 -109 104 -33
114 23 213 121 213 47 0 71 -14 95 -53 l20 -32 0 54 c0 46 -2 52 -15 41 -11
-9 -22 -9 -46 -1 -42 15 -97 13 -134 -3z"/>
<path d="M1787 329 c-117 -277 -131 -306 -154 -312 -10 -3 9 -5 42 -5 45 -1
54 1 38 8 -27 11 -27 9 -7 60 l16 40 68 0 68 0 16 -40 c20 -51 20 -49 -6 -60
-17 -6 -3 -9 52 -9 66 -1 72 1 50 12 -19 9 -40 49 -90 169 -36 86 -69 160 -72
164 -4 3 -13 -9 -21 -27z m21 -86 c6 -16 17 -45 26 -65 l16 -38 -59 0 -60 0
27 65 c15 36 30 65 34 65 3 0 11 -12 16 -27z"/>
<path d="M4673 345 c-6 -11 -36 -81 -67 -155 -33 -80 -67 -144 -82 -157 l-25
-23 58 1 c45 0 53 2 36 9 -27 11 -28 19 -9 65 l15 35 69 0 c67 0 70 -1 80 -27
22 -61 22 -64 -1 -73 -16 -6 -2 -9 53 -9 67 -1 72 1 50 12 -19 9 -40 46 -85
153 -90 211 -80 192 -92 169z m29 -140 l27 -65 -60 0 -59 0 16 38 c9 20 20 49
26 65 5 15 13 27 16 27 4 0 19 -29 34 -65z"/>
<path d="M5699 331 c-30 -31 -37 -67 -18 -102 5 -11 43 -41 82 -66 40 -25 75
-51 79 -57 15 -22 8 -55 -14 -70 -48 -34 -112 -11 -139 49 l-18 40 0 -64 c-1
-54 1 -62 13 -52 11 10 24 10 54 0 82 -24 156 17 156 86 0 44 -28 74 -111 121
-71 39 -88 71 -58 104 38 42 116 10 134 -53 8 -28 9 -24 10 33 0 43 -2 60 -8
51 -8 -12 -14 -13 -36 -3 -47 21 -94 15 -126 -17z"/>
<path d="M6287 329 c-117 -277 -131 -306 -154 -312 -10 -3 9 -5 42 -5 45 -1
54 1 38 8 -27 11 -28 19 -6 65 17 35 17 35 84 35 l67 0 16 -40 c20 -51 20 -49
-6 -60 -17 -6 -3 -9 52 -9 66 -1 72 1 50 12 -19 9 -40 49 -90 169 -36 86 -69
160 -72 164 -4 3 -13 -9 -21 -27z m21 -86 c6 -16 17 -45 26 -65 l16 -38 -59 0
-60 0 27 65 c15 36 30 65 34 65 3 0 11 -12 16 -27z"/>
<path d="M6774 350 c-50 -20 -69 -89 -36 -130 9 -12 49 -40 87 -63 57 -34 71
-47 73 -70 8 -67 -75 -91 -129 -38 -16 16 -29 36 -29 45 0 8 -4 18 -10 21 -6
4 -10 -17 -10 -56 0 -53 2 -60 15 -49 11 9 22 9 46 1 67 -23 124 -9 152 39 34
58 14 99 -72 150 -76 44 -104 71 -99 96 5 26 49 48 81 40 32 -8 67 -43 67 -67
0 -10 5 -21 10 -24 6 -4 10 17 10 56 0 51 -2 60 -14 50 -10 -8 -21 -8 -40 -1
-32 12 -73 12 -102 0z"/>
<path d="M7518 340 c-101 -54 -126 -207 -47 -288 73 -75 195 -65 247 18 l16
25 -30 -26 c-59 -53 -93 -60 -151 -32 -86 40 -98 213 -20 279 53 44 139 25
170 -38 l17 -33 0 59 c0 50 -2 57 -15 46 -11 -9 -22 -9 -46 -1 -47 16 -99 13
-141 -9z"/>
<path d="M598 340 c21 -9 22 -13 22 -160 0 -147 -1 -151 -22 -160 -17 -6 -3
-9 52 -9 41 1 68 3 60 6 -29 10 -40 37 -40 95 0 85 23 80 96 -22 l58 -80 50 0
51 1 -31 13 c-18 8 -54 43 -83 82 l-51 68 29 12 c33 14 51 41 51 78 0 68 -35
86 -167 85 -69 0 -91 -3 -75 -9z m167 -30 c44 -49 8 -120 -61 -120 l-34 0 0
70 0 70 38 0 c26 0 45 -7 57 -20z"/>
<path d="M1135 343 c11 -3 23 -10 27 -17 4 -6 8 -72 8 -146 0 -74 -4 -140 -8
-146 -4 -7 -16 -14 -27 -17 -11 -2 41 -5 116 -6 137 -1 137 -1 143 23 3 13 9
32 13 43 4 11 -6 5 -24 -14 -29 -31 -36 -33 -97 -33 l-66 0 0 75 0 75 44 0
c57 0 76 -8 76 -31 0 -10 5 -19 10 -19 6 0 10 25 10 55 0 54 -13 74 -23 35 -4
-17 -14 -20 -61 -20 l-56 0 0 65 0 65 70 0 c68 0 71 -1 81 -27 13 -32 24 -15
15 22 l-6 25 -133 -1 c-72 -1 -123 -4 -112 -6z"/>
<path d="M2150 313 c0 -37 1 -37 13 -13 10 21 21 26 60 28 l47 3 0 -130 c0
-138 -8 -176 -37 -184 -10 -3 16 -5 57 -4 41 0 65 2 54 4 -29 5 -34 36 -34
189 l0 124 36 0 c42 0 74 -15 74 -35 0 -8 4 -15 8 -15 4 0 6 16 4 35 l-4 35
-139 0 -139 0 0 -37z"/>
<path d="M2678 340 c22 -9 22 -12 20 -162 l-3 -152 -25 -7 c-14 -4 36 -7 112
-8 l136 -1 11 31 c17 49 13 53 -15 20 -24 -29 -30 -31 -95 -31 l-69 0 0 75 0
75 48 0 c49 0 75 -13 85 -40 3 -8 6 14 6 50 1 59 -1 63 -12 40 -11 -22 -20
-25 -70 -28 l-57 -3 0 66 0 65 70 0 c65 0 70 -2 84 -27 l15 -28 1 38 0 37
-132 -1 c-91 0 -126 -3 -110 -9z"/>
<path d="M3180 341 l25 -7 0 -154 0 -154 -25 -7 c-15 -4 8 -7 55 -7 47 0 70 3
55 7 -23 6 -25 12 -28 79 -3 65 -1 72 16 72 12 0 39 -29 76 -80 l57 -80 47 0
47 0 -30 15 c-24 13 -125 132 -125 148 0 3 14 10 30 17 59 25 69 92 19 134
-29 25 -36 26 -137 25 -59 -1 -96 -4 -82 -8z m172 -28 c24 -22 24 -77 -2 -103
-12 -12 -33 -20 -55 -20 l-35 0 0 70 0 70 37 0 c20 0 45 -7 55 -17z"/>
<path d="M3958 340 c21 -9 22 -13 22 -160 0 -147 -1 -151 -22 -160 -17 -6 -3
-9 52 -9 67 -1 72 1 50 12 -22 11 -25 19 -28 80 -2 37 1 67 5 67 13 0 133
-124 133 -137 0 -6 -6 -14 -12 -16 -7 -3 25 -6 72 -6 l85 -1 -40 19 c-22 10
-74 53 -115 95 l-74 76 59 61 c33 34 74 67 90 75 29 13 28 13 -34 14 -58 0
-63 -1 -46 -14 18 -13 16 -18 -50 -82 l-70 -69 -3 55 c-4 72 3 98 31 103 12 2
-12 5 -53 5 -54 1 -69 -2 -52 -8z"/>
<path d="M5075 343 c50 -12 55 -28 55 -167 0 -72 -4 -136 -8 -142 -4 -7 -16
-14 -27 -17 -11 -2 9 -5 45 -4 36 0 55 2 42 4 -13 3 -25 10 -28 17 -3 7 -3 63
-2 126 l3 113 111 -136 c62 -75 114 -133 118 -130 3 4 6 78 6 165 0 155 0 159
23 168 17 7 8 9 -38 9 -46 0 -55 -2 -37 -9 21 -9 22 -14 22 -126 l0 -116 -102
126 -103 126 -50 -1 c-27 -1 -41 -4 -30 -6z"/>
<path d="M7975 343 c11 -3 23 -10 27 -17 4 -6 8 -72 8 -146 0 -74 -4 -140 -8
-146 -4 -7 -16 -14 -27 -17 -11 -2 14 -5 55 -5 54 -1 69 2 53 8 -22 9 -23 13
-23 160 0 147 1 151 23 160 16 6 1 9 -53 8 -41 0 -66 -3 -55 -5z"/>
<path d="M8331 308 c0 -39 1 -41 10 -18 13 32 26 40 72 40 l37 0 0 -129 c0
-138 -8 -176 -37 -184 -10 -3 16 -5 57 -5 53 -1 68 2 53 8 -28 11 -35 59 -31
200 l3 105 45 0 c37 0 47 -4 55 -22 11 -26 31 -32 21 -7 -3 9 -6 24 -6 35 0
18 -9 19 -140 19 l-140 0 1 -42z"/>
<path d="M8849 336 c13 -7 48 -51 77 -97 51 -79 54 -88 54 -147 0 -56 -3 -64
-22 -72 -17 -6 -3 -9 52 -9 41 1 68 3 60 6 -28 10 -40 37 -39 87 0 45 7 61 57
136 31 47 68 91 82 97 22 11 18 13 -40 12 -36 -1 -58 -3 -48 -6 31 -8 27 -31
-16 -99 l-44 -67 -41 64 c-44 70 -50 95 -23 102 9 3 -17 5 -58 5 -67 1 -73 0
-51 -12z"/>
</g>
</svg>
